HIERARCHY
ROOT Hips
{
	OFFSET -0.001795 -0.223333 0.028219
	CHANNELS 6 Xposition Yposition Zposition Zrotation Yrotation Xrotation 
	JOINT LeftUpLeg
	{
		OFFSET 0.069520 -0.091406 -0.006815
		CHANNELS 3 Zrotation Yrotation Xrotation
		JOINT LeftLeg
		{
			OFFSET 0.034277 -0.375199 -0.004496
			CHANNELS 3 Zrotation Yrotation Xrotation
			JOINT LeftFoot
			{
				OFFSET -0.013596 -0.397961 -0.043693
				CHANNELS 3 Zrotation Yrotation Xrotation
				JOINT LeftToe
				{
					OFFSET 0.026358 -0.055791 0.119288
					CHANNELS 3 Zrotation Yrotation Xrotation
					End Site
					{
						OFFSET 0.000000 0.000000 0.000000
					}
				}
			}
		}
	}
	JOINT RightUpLeg
	{
		OFFSET -0.067670 -0.090522 -0.004320
		CHANNELS 3 Zrotation Yrotation Xrotation
		JOINT RightLeg
		{
			OFFSET -0.038290 -0.382569 -0.008850
			CHANNELS 3 Zrotation Yrotation Xrotation
			JOINT RightFoot
			{
				OFFSET 0.015774 -0.398415 -0.042312
				CHANNELS 3 Zrotation Yrotation Xrotation
				JOINT RightToe
				{
					OFFSET -0.025372 -0.048144 0.123348
					CHANNELS 3 Zrotation Yrotation Xrotation
					End Site
					{
						OFFSET 0.000000 0.000000 0.000000
					}
				}
			}
		}
	}
	JOINT Spine
	{
		OFFSET -0.002533 0.108963 -0.026696
		CHANNELS 3 Zrotation Yrotation Xrotation
		JOINT Spine1
		{
			OFFSET 0.005487 0.135180 0.001092
			CHANNELS 3 Zrotation Yrotation Xrotation
			JOINT Spine2
			{
				OFFSET 0.001457 0.052922 0.025425
				CHANNELS 3 Zrotation Yrotation Xrotation
				JOINT Neck
				{
					OFFSET -0.002778 0.213870 -0.042857
					CHANNELS 3 Zrotation Yrotation Xrotation
					JOINT Head
					{
						OFFSET 0.005152 0.064970 0.051349
						CHANNELS 3 Zrotation Yrotation Xrotation
						End Site
						{
							OFFSET 0.000000 0.000000 0.000000
						}
					}
				}
				JOINT LeftShoulder
				{
					OFFSET 0.078845 0.121749 -0.034090
					CHANNELS 3 Zrotation Yrotation Xrotation
					JOINT LeftArm
					{
						OFFSET 0.090977 0.030469 -0.008868
						CHANNELS 3 Zrotation Yrotation Xrotation
						JOINT LeftForeArm
						{
							OFFSET 0.259612 -0.012772 -0.027456
							CHANNELS 3 Zrotation Yrotation Xrotation
							JOINT LeftHand
							{
								OFFSET 0.249234 0.008986 -0.001171
								CHANNELS 3 Zrotation Yrotation Xrotation
								End Site
								{
									OFFSET 0.000000 0.000000 0.000000
								}
							}
						}
					}
				}
				JOINT RightShoulder
				{
					OFFSET -0.081759 0.118833 -0.038615
					CHANNELS 3 Zrotation Yrotation Xrotation
					JOINT RightArm
					{
						OFFSET -0.096012 0.032551 -0.009143
						CHANNELS 3 Zrotation Yrotation Xrotation
						JOINT RightForeArm
						{
							OFFSET -0.253742 -0.013329 -0.021401
							CHANNELS 3 Zrotation Yrotation Xrotation
							JOINT RightHand
							{
								OFFSET -0.255298 0.007772 -0.005559
								CHANNELS 3 Zrotation Yrotation Xrotation
								End Site
								{
									OFFSET 0.000000 0.000000 0.000000
								}
							}
						}
					}
				}
			}
		}
	}
}
MOTION
Frames: 10
Frame Time: 0.050000
0.000000 0.935949 0.000000 0.240715 23.810750 8.058099 8.791363 -0.975235 -9.949904 -5.686302 0.190784 7.657205 7.977845 16.422047 4.124130 0.000000 0.000000 0.000000 -12.122477 -0.892420 -13.598200 7.377940 -1.943233 9.937849 -8.868874 -18.831766 12.478636 0.000000 0.000000 0.000000 1.345222 -0.451700 6.459975 2.519284 0.424941 -25.759340 0.225553 -4.778176 25.961260 -1.733225 4.242342 -30.382166 0.000000 0.000000 0.000000 -24.613488 -1.928757 -4.249932 -53.541807 -2.526601 -6.588220 -15.129872 -28.628992 4.599891 0.000000 0.000000 0.000000 13.865021 5.069164 3.861841 56.116816 8.823853 -3.367848 6.792242 32.884240 4.090917 0.000000 0.000000 0.000000 
0.005635 0.935321 -0.001895 -0.143720 21.759742 8.363922 8.421852 -0.931201 -9.969151 -4.961808 0.176769 6.911959 8.666102 18.025519 5.778763 0.000000 0.000000 0.000000 -12.566425 -0.908389 -14.565766 7.621686 -2.029275 11.071980 -7.675634 -16.965981 11.274175 0.000000 0.000000 0.000000 1.110373 -0.288677 4.455758 3.261189 0.218664 -25.298296 -0.119078 -2.995035 26.724578 -0.531275 3.693424 -29.071494 0.000000 0.000000 0.000000 -21.968446 -0.174215 -4.818595 -56.114580 -2.167003 -7.389287 -15.565860 -29.263492 4.769752 0.000000 0.000000 0.000000 13.618299 5.357786 4.086082 56.198873 7.361184 -4.034748 7.401875 33.810976 4.441715 0.000000 0.000000 0.000000 
0.011286 0.934095 -0.004478 -0.533748 19.644142 7.860324 8.297912 -0.865939 -9.719057 -5.077185 0.192130 8.520697 10.221631 20.133959 4.152880 0.000000 0.000000 0.000000 -13.107236 -0.982650 -15.920493 8.700856 -2.480354 13.490828 -6.354810 -14.647287 11.082712 0.000000 0.000000 0.000000 2.000871 -0.381844 4.866912 2.215723 0.420756 -25.594471 0.727334 -2.461129 27.524874 -1.806383 4.288692 -30.336011 0.000000 0.000000 0.000000 -21.704972 -0.284631 -4.368777 -56.310176 -3.546074 -6.965931 -15.209825 -27.483986 4.491973 0.000000 0.000000 0.000000 12.889159 4.445738 3.390981 57.612382 6.876301 -4.344911 7.142419 34.542189 4.554374 0.000000 0.000000 0.000000 
0.017503 0.933156 -0.007783 -0.961083 17.807838 7.577396 7.957601 -0.848677 -10.301490 -5.234308 0.177951 11.199283 11.466261 22.042804 2.823370 0.000000 0.000000 0.000000 -13.427559 -0.986995 -16.823925 8.720299 -2.488832 14.531568 -5.315326 -12.811450 11.596878 0.000000 0.000000 0.000000 1.991948 -0.384122 4.948332 2.516030 0.323377 -25.432419 1.035050 -3.027988 27.963541 -1.332040 3.804628 -30.888253 0.000000 0.000000 0.000000 -22.042889 0.263457 -4.208960 -56.923058 -3.219161 -7.291397 -14.057025 -27.954678 4.437683 0.000000 0.000000 0.000000 11.892221 5.422955 3.473765 57.359701 7.023172 -4.302590 7.221468 34.568148 4.464606 0.000000 0.000000 0.000000 
0.023870 0.931759 -0.011935 -1.111769 15.618400 7.139790 7.672791 -0.815115 -10.673353 -5.838688 0.282422 13.388967 11.516023 22.243108 2.086187 0.000000 0.000000 0.000000 -13.816241 -1.007186 -18.235353 8.684462 -2.499946 16.155132 -4.725573 -11.942778 11.524219 0.000000 0.000000 0.000000 2.044292 -0.469728 6.128550 3.338340 0.101470 -25.123986 0.621475 -2.317200 27.557623 -0.530357 3.270447 -30.758375 0.000000 0.000000 0.000000 -21.881024 -0.467366 -3.487789 -56.277315 -3.741858 -6.966827 -15.044076 -28.235508 4.788214 0.000000 0.000000 0.000000 12.834284 4.540299 2.980943 56.429747 6.248164 -4.710147 8.183976 36.076531 4.988005 0.000000 0.000000 0.000000 
0.030832 0.930860 -0.017023 -1.475374 12.112566 7.200931 7.748430 -0.769470 -11.367310 -6.571754 0.525183 15.228035 12.845999 24.787188 1.833209 0.000000 0.000000 0.000000 -13.646881 -0.786410 -19.723822 7.829190 -2.044766 16.511445 -3.383185 -9.776574 11.512217 0.000000 0.000000 0.000000 1.764211 -0.436856 6.105941 4.471232 -0.243047 -24.229705 0.412234 -2.770535 27.380601 0.398235 2.351970 -30.607338 0.000000 0.000000 0.000000 -22.315986 -0.480262 -2.655583 -56.020143 -4.440493 -6.733210 -14.710658 -28.512665 4.982991 0.000000 0.000000 0.000000 12.294157 5.444626 2.896556 55.988964 5.869161 -4.915866 8.331163 36.989721 4.962887 0.000000 0.000000 0.000000 
0.038056 0.930161 -0.023303 -1.669780 8.462140 6.942848 7.270430 -0.705439 -11.459904 -7.553922 0.908865 16.181195 13.928926 26.920419 2.133145 0.000000 0.000000 0.000000 -13.449046 -0.528724 -21.098738 7.030793 -1.602896 16.672846 -2.498633 -8.600567 11.973959 0.000000 0.000000 0.000000 1.774188 -0.516815 7.411743 4.983888 -0.435172 -24.070694 0.186029 -2.992141 27.374454 1.586859 1.376052 -31.366886 0.000000 0.000000 0.000000 -22.374541 -0.760183 -1.634956 -55.460917 -5.553929 -6.321145 -14.501402 -29.027427 5.233041 0.000000 0.000000 0.000000 12.655477 5.313745 2.389375 55.127051 5.449067 -5.159054 9.430773 38.576436 5.378592 0.000000 0.000000 0.000000 
0.045628 0.929702 -0.031064 -1.854629 4.178386 6.634574 6.576043 -0.660534 -11.862034 -8.088113 1.303057 17.671255 15.251348 29.441686 2.703318 0.000000 0.000000 0.000000 -12.753026 -0.101004 -22.235551 5.695462 -0.989161 16.195123 -1.427257 -7.098148 11.922347 0.000000 0.000000 0.000000 1.434375 -0.556920 8.895043 6.041145 -0.814888 -23.174864 -0.292164 -3.975101 27.181423 2.919602 0.155978 -31.924392 0.000000 0.000000 0.000000 -22.302601 -0.562735 -0.551084 -54.866197 -7.254219 -5.696119 -14.714240 -30.105848 5.797498 0.000000 0.000000 0.000000 12.101292 6.336862 2.189567 55.035602 5.581370 -5.119578 9.550247 39.208408 5.105923 0.000000 0.000000 0.000000 
0.053112 0.929662 -0.039795 -2.325670 -0.172557 6.885457 6.582232 -0.575126 -12.202406 -9.603533 1.992939 17.754026 16.997828 32.468923 3.806904 0.000000 0.000000 0.000000 -11.813430 0.395565 -24.232147 4.776391 -0.546140 15.211412 -0.806343 -6.849643 13.160490 0.000000 0.000000 0.000000 1.173916 -0.592372 10.549347 7.002198 -1.102723 -23.263118 -0.505003 -4.431149 27.263534 5.222242 -1.374798 -33.014428 0.000000 0.000000 0.000000 -21.712587 -0.754071 0.573527 -54.453121 -8.663509 -5.196182 -15.641549 -31.169327 6.537998 0.000000 0.000000 0.000000 12.300448 6.054633 1.460926 54.605449 5.495050 -5.168536 10.170629 40.520787 5.130996 0.000000 0.000000 0.000000 
0.060270 0.929607 -0.048835 -2.745546 -4.706615 7.439525 6.567122 -0.496993 -13.385948 -10.842065 2.750855 18.595044 19.459840 36.168191 5.757756 0.000000 0.000000 0.000000 -10.865818 0.974574 -26.266236 3.513845 -0.101813 14.116619 0.224823 -5.898432 14.051465 0.000000 0.000000 0.000000 0.749470 -0.555023 11.894678 8.126829 -1.442631 -22.954140 -0.891615 -5.881561 27.555903 6.887999 -2.728149 -33.805966 0.000000 0.000000 0.000000 -21.995485 -0.391325 1.640517 -53.003968 -10.128973 -4.746225 -17.272892 -31.996824 7.532066 0.000000 0.000000 0.000000 12.153052 6.748529 0.985980 54.129969 5.972420 -4.941002 10.227062 41.333370 4.649762 0.000000 0.000000 0.000000 
